<mxfile host="app.diagrams.net" modified="2022-05-18T14:51:19.017Z" agent="5.0 (Windows)" etag="MWG6fGWFiWrgqr66ph60" version="18.0.6" type="github">
  <diagram id="NqhFc1NjUYj2qAZxfqg7" name="Page-1">
    <mxGraphModel dx="2098" dy="1771" grid="1" gridSize="10" guides="1" tooltips="1" connect="1" arrows="1" fold="1" page="1" pageScale="1" pageWidth="827" pageHeight="1169" math="0" shadow="0">
      <root>
        <mxCell id="0" />
        <mxCell id="1" parent="0" />
        <mxCell id="DXyumOJfPZMr4FoaWyzm-165" style="edgeStyle=orthogonalEdgeStyle;rounded=0;orthogonalLoop=1;jettySize=auto;html=1;exitX=1;exitY=0.5;exitDx=0;exitDy=0;entryX=0;entryY=0.5;entryDx=0;entryDy=0;endArrow=none;endFill=0;" edge="1" parent="1" source="DXyumOJfPZMr4FoaWyzm-1" target="DXyumOJfPZMr4FoaWyzm-164">
          <mxGeometry relative="1" as="geometry" />
        </mxCell>
        <mxCell id="DXyumOJfPZMr4FoaWyzm-167" value="0,n" style="edgeLabel;html=1;align=center;verticalAlign=middle;resizable=0;points=[];" vertex="1" connectable="0" parent="DXyumOJfPZMr4FoaWyzm-165">
          <mxGeometry x="-0.5872" y="2" relative="1" as="geometry">
            <mxPoint as="offset" />
          </mxGeometry>
        </mxCell>
        <mxCell id="DXyumOJfPZMr4FoaWyzm-179" style="edgeStyle=orthogonalEdgeStyle;rounded=0;orthogonalLoop=1;jettySize=auto;html=1;exitX=0;exitY=0.75;exitDx=0;exitDy=0;entryX=0.5;entryY=0;entryDx=0;entryDy=0;endArrow=none;endFill=0;" edge="1" parent="1" source="DXyumOJfPZMr4FoaWyzm-1" target="DXyumOJfPZMr4FoaWyzm-178">
          <mxGeometry relative="1" as="geometry">
            <Array as="points">
              <mxPoint x="360" y="430" />
              <mxPoint x="265" y="430" />
            </Array>
          </mxGeometry>
        </mxCell>
        <mxCell id="DXyumOJfPZMr4FoaWyzm-181" value="1,1" style="edgeLabel;html=1;align=center;verticalAlign=middle;resizable=0;points=[];" vertex="1" connectable="0" parent="DXyumOJfPZMr4FoaWyzm-179">
          <mxGeometry x="0.3839" y="3" relative="1" as="geometry">
            <mxPoint x="-8" y="-3" as="offset" />
          </mxGeometry>
        </mxCell>
        <mxCell id="DXyumOJfPZMr4FoaWyzm-211" style="edgeStyle=orthogonalEdgeStyle;rounded=0;orthogonalLoop=1;jettySize=auto;html=1;exitX=0.5;exitY=0;exitDx=0;exitDy=0;entryX=0.5;entryY=1;entryDx=0;entryDy=0;endArrow=none;endFill=0;" edge="1" parent="1" source="DXyumOJfPZMr4FoaWyzm-1" target="DXyumOJfPZMr4FoaWyzm-210">
          <mxGeometry relative="1" as="geometry" />
        </mxCell>
        <mxCell id="DXyumOJfPZMr4FoaWyzm-214" value="0,n" style="edgeLabel;html=1;align=center;verticalAlign=middle;resizable=0;points=[];" vertex="1" connectable="0" parent="DXyumOJfPZMr4FoaWyzm-211">
          <mxGeometry x="-0.3247" y="2" relative="1" as="geometry">
            <mxPoint as="offset" />
          </mxGeometry>
        </mxCell>
        <mxCell id="DXyumOJfPZMr4FoaWyzm-1" value="serveur" style="swimlane;" vertex="1" parent="1">
          <mxGeometry x="360" y="260" width="200" height="200" as="geometry" />
        </mxCell>
        <mxCell id="DXyumOJfPZMr4FoaWyzm-5" value="??guild_discord_id" style="text;html=1;align=left;verticalAlign=middle;resizable=0;points=[];autosize=1;strokeColor=none;fillColor=none;" vertex="1" parent="DXyumOJfPZMr4FoaWyzm-1">
          <mxGeometry x="15" y="50" width="120" height="20" as="geometry" />
        </mxCell>
        <mxCell id="DXyumOJfPZMr4FoaWyzm-6" value="name" style="text;html=1;align=left;verticalAlign=middle;resizable=0;points=[];autosize=1;strokeColor=none;fillColor=none;" vertex="1" parent="DXyumOJfPZMr4FoaWyzm-1">
          <mxGeometry x="15" y="70" width="50" height="20" as="geometry" />
        </mxCell>
        <mxCell id="DXyumOJfPZMr4FoaWyzm-4" value="&lt;div align=&quot;left&quot;&gt;id&lt;/div&gt;" style="text;html=1;align=left;verticalAlign=middle;resizable=0;points=[];autosize=1;strokeColor=none;fillColor=none;" vertex="1" parent="DXyumOJfPZMr4FoaWyzm-1">
          <mxGeometry x="15" y="30" width="30" height="20" as="geometry" />
        </mxCell>
        <mxCell id="DXyumOJfPZMr4FoaWyzm-19" value="club_name" style="text;html=1;align=left;verticalAlign=middle;resizable=0;points=[];autosize=1;strokeColor=none;fillColor=none;" vertex="1" parent="DXyumOJfPZMr4FoaWyzm-1">
          <mxGeometry x="15" y="90" width="80" height="20" as="geometry" />
        </mxCell>
        <mxCell id="DXyumOJfPZMr4FoaWyzm-20" value="default_posting_weekday" style="text;html=1;align=left;verticalAlign=middle;resizable=0;points=[];autosize=1;strokeColor=none;fillColor=none;" vertex="1" parent="DXyumOJfPZMr4FoaWyzm-1">
          <mxGeometry x="15" y="110" width="160" height="20" as="geometry" />
        </mxCell>
        <mxCell id="DXyumOJfPZMr4FoaWyzm-21" value="default_posting_time" style="text;html=1;align=left;verticalAlign=middle;resizable=0;points=[];autosize=1;strokeColor=none;fillColor=none;" vertex="1" parent="DXyumOJfPZMr4FoaWyzm-1">
          <mxGeometry x="15" y="130" width="130" height="20" as="geometry" />
        </mxCell>
        <mxCell id="DXyumOJfPZMr4FoaWyzm-59" value="gsheet_auth" style="text;html=1;align=left;verticalAlign=middle;resizable=0;points=[];autosize=1;strokeColor=none;fillColor=none;" vertex="1" parent="DXyumOJfPZMr4FoaWyzm-1">
          <mxGeometry x="15" y="170" width="80" height="20" as="geometry" />
        </mxCell>
        <mxCell id="DXyumOJfPZMr4FoaWyzm-143" style="edgeStyle=orthogonalEdgeStyle;rounded=0;orthogonalLoop=1;jettySize=auto;html=1;exitX=0.5;exitY=0;exitDx=0;exitDy=0;entryX=0.5;entryY=1;entryDx=0;entryDy=0;endArrow=none;endFill=0;" edge="1" parent="1" source="DXyumOJfPZMr4FoaWyzm-2" target="DXyumOJfPZMr4FoaWyzm-91">
          <mxGeometry relative="1" as="geometry" />
        </mxCell>
        <mxCell id="DXyumOJfPZMr4FoaWyzm-146" value="1,1" style="edgeLabel;html=1;align=center;verticalAlign=middle;resizable=0;points=[];" vertex="1" connectable="0" parent="DXyumOJfPZMr4FoaWyzm-143">
          <mxGeometry x="0.5745" relative="1" as="geometry">
            <mxPoint x="1" as="offset" />
          </mxGeometry>
        </mxCell>
        <mxCell id="DXyumOJfPZMr4FoaWyzm-201" style="edgeStyle=orthogonalEdgeStyle;rounded=0;orthogonalLoop=1;jettySize=auto;html=1;exitX=1;exitY=0;exitDx=0;exitDy=0;entryX=0;entryY=0.5;entryDx=0;entryDy=0;endArrow=none;endFill=0;" edge="1" parent="1" source="DXyumOJfPZMr4FoaWyzm-2" target="DXyumOJfPZMr4FoaWyzm-200">
          <mxGeometry relative="1" as="geometry">
            <Array as="points">
              <mxPoint x="600" y="640" />
              <mxPoint x="600" y="540" />
            </Array>
          </mxGeometry>
        </mxCell>
        <mxCell id="DXyumOJfPZMr4FoaWyzm-203" value="1,1" style="edgeLabel;html=1;align=center;verticalAlign=middle;resizable=0;points=[];" vertex="1" connectable="0" parent="DXyumOJfPZMr4FoaWyzm-201">
          <mxGeometry x="-0.3697" y="-1" relative="1" as="geometry">
            <mxPoint as="offset" />
          </mxGeometry>
        </mxCell>
        <mxCell id="DXyumOJfPZMr4FoaWyzm-2" value="routines de sondages" style="swimlane;" vertex="1" parent="1">
          <mxGeometry x="370" y="640" width="200" height="200" as="geometry" />
        </mxCell>
        <mxCell id="DXyumOJfPZMr4FoaWyzm-10" value="channel_discord_id" style="text;html=1;align=left;verticalAlign=middle;resizable=0;points=[];autosize=1;strokeColor=none;fillColor=none;" vertex="1" parent="DXyumOJfPZMr4FoaWyzm-2">
          <mxGeometry x="15" y="50" width="120" height="20" as="geometry" />
        </mxCell>
        <mxCell id="DXyumOJfPZMr4FoaWyzm-11" value="posting_weekday" style="text;html=1;align=left;verticalAlign=middle;resizable=0;points=[];autosize=1;strokeColor=none;fillColor=none;" vertex="1" parent="DXyumOJfPZMr4FoaWyzm-2">
          <mxGeometry x="15" y="70" width="110" height="20" as="geometry" />
        </mxCell>
        <mxCell id="DXyumOJfPZMr4FoaWyzm-12" value="&lt;div align=&quot;left&quot;&gt;id&lt;/div&gt;" style="text;html=1;align=left;verticalAlign=middle;resizable=0;points=[];autosize=1;strokeColor=none;fillColor=none;" vertex="1" parent="DXyumOJfPZMr4FoaWyzm-2">
          <mxGeometry x="15" y="30" width="30" height="20" as="geometry" />
        </mxCell>
        <mxCell id="DXyumOJfPZMr4FoaWyzm-13" value="posting_time" style="text;html=1;align=left;verticalAlign=middle;resizable=0;points=[];autosize=1;strokeColor=none;fillColor=none;" vertex="1" parent="DXyumOJfPZMr4FoaWyzm-2">
          <mxGeometry x="15" y="90" width="90" height="20" as="geometry" />
        </mxCell>
        <mxCell id="DXyumOJfPZMr4FoaWyzm-40" value="title_format (eg. Lundi 3, 19h)" style="text;html=1;align=left;verticalAlign=middle;resizable=0;points=[];autosize=1;strokeColor=none;fillColor=none;" vertex="1" parent="DXyumOJfPZMr4FoaWyzm-2">
          <mxGeometry x="15" y="110" width="180" height="20" as="geometry" />
        </mxCell>
        <mxCell id="DXyumOJfPZMr4FoaWyzm-49" value="message" style="text;html=1;align=left;verticalAlign=middle;resizable=0;points=[];autosize=1;strokeColor=none;fillColor=none;" vertex="1" parent="DXyumOJfPZMr4FoaWyzm-2">
          <mxGeometry x="15" y="130" width="70" height="20" as="geometry" />
        </mxCell>
        <mxCell id="DXyumOJfPZMr4FoaWyzm-50" value="reactions" style="text;html=1;align=left;verticalAlign=middle;resizable=0;points=[];autosize=1;strokeColor=none;fillColor=none;" vertex="1" parent="DXyumOJfPZMr4FoaWyzm-2">
          <mxGeometry x="15" y="150" width="70" height="20" as="geometry" />
        </mxCell>
        <mxCell id="DXyumOJfPZMr4FoaWyzm-3" value="sondages" style="swimlane;" vertex="1" parent="1">
          <mxGeometry x="1320" y="300" width="200" height="200" as="geometry" />
        </mxCell>
        <mxCell id="DXyumOJfPZMr4FoaWyzm-37" value="id" style="text;html=1;align=left;verticalAlign=middle;resizable=0;points=[];autosize=1;strokeColor=none;fillColor=none;" vertex="1" parent="DXyumOJfPZMr4FoaWyzm-3">
          <mxGeometry x="10" y="30" width="30" height="20" as="geometry" />
        </mxCell>
        <mxCell id="DXyumOJfPZMr4FoaWyzm-38" value="votes" style="text;html=1;align=left;verticalAlign=middle;resizable=0;points=[];autosize=1;strokeColor=none;fillColor=none;" vertex="1" parent="DXyumOJfPZMr4FoaWyzm-3">
          <mxGeometry x="10" y="50" width="40" height="20" as="geometry" />
        </mxCell>
        <mxCell id="DXyumOJfPZMr4FoaWyzm-110" value="#routine_id" style="text;html=1;align=left;verticalAlign=middle;resizable=0;points=[];autosize=1;strokeColor=none;fillColor=none;" vertex="1" parent="DXyumOJfPZMr4FoaWyzm-3">
          <mxGeometry x="10" y="70" width="80" height="20" as="geometry" />
        </mxCell>
        <mxCell id="DXyumOJfPZMr4FoaWyzm-14" value="entrainements" style="swimlane;" vertex="1" parent="1">
          <mxGeometry x="790" y="260" width="200" height="200" as="geometry" />
        </mxCell>
        <mxCell id="DXyumOJfPZMr4FoaWyzm-15" value="weekday" style="text;html=1;align=left;verticalAlign=middle;resizable=0;points=[];autosize=1;strokeColor=none;fillColor=none;" vertex="1" parent="DXyumOJfPZMr4FoaWyzm-14">
          <mxGeometry x="15" y="50" width="60" height="20" as="geometry" />
        </mxCell>
        <mxCell id="DXyumOJfPZMr4FoaWyzm-16" value="time" style="text;html=1;align=left;verticalAlign=middle;resizable=0;points=[];autosize=1;strokeColor=none;fillColor=none;" vertex="1" parent="DXyumOJfPZMr4FoaWyzm-14">
          <mxGeometry x="15" y="70" width="40" height="20" as="geometry" />
        </mxCell>
        <mxCell id="DXyumOJfPZMr4FoaWyzm-17" value="&lt;div align=&quot;left&quot;&gt;id&lt;/div&gt;" style="text;html=1;align=left;verticalAlign=middle;resizable=0;points=[];autosize=1;strokeColor=none;fillColor=none;" vertex="1" parent="DXyumOJfPZMr4FoaWyzm-14">
          <mxGeometry x="15" y="30" width="30" height="20" as="geometry" />
        </mxCell>
        <mxCell id="DXyumOJfPZMr4FoaWyzm-22" value="logs du bot" style="swimlane;" vertex="1" parent="1">
          <mxGeometry x="1380" y="30" width="200" height="200" as="geometry" />
        </mxCell>
        <mxCell id="DXyumOJfPZMr4FoaWyzm-23" value="timestamp" style="text;html=1;align=left;verticalAlign=middle;resizable=0;points=[];autosize=1;strokeColor=none;fillColor=none;" vertex="1" parent="DXyumOJfPZMr4FoaWyzm-22">
          <mxGeometry x="10" y="30" width="70" height="20" as="geometry" />
        </mxCell>
        <mxCell id="DXyumOJfPZMr4FoaWyzm-24" value="type" style="text;html=1;align=left;verticalAlign=middle;resizable=0;points=[];autosize=1;strokeColor=none;fillColor=none;" vertex="1" parent="DXyumOJfPZMr4FoaWyzm-22">
          <mxGeometry x="10" y="50" width="40" height="20" as="geometry" />
        </mxCell>
        <mxCell id="DXyumOJfPZMr4FoaWyzm-25" value="class" style="text;html=1;align=left;verticalAlign=middle;resizable=0;points=[];autosize=1;strokeColor=none;fillColor=none;" vertex="1" parent="DXyumOJfPZMr4FoaWyzm-22">
          <mxGeometry x="10" y="70" width="50" height="20" as="geometry" />
        </mxCell>
        <mxCell id="DXyumOJfPZMr4FoaWyzm-26" value="origin" style="text;html=1;align=left;verticalAlign=middle;resizable=0;points=[];autosize=1;strokeColor=none;fillColor=none;" vertex="1" parent="DXyumOJfPZMr4FoaWyzm-22">
          <mxGeometry x="10" y="90" width="50" height="20" as="geometry" />
        </mxCell>
        <mxCell id="DXyumOJfPZMr4FoaWyzm-27" value="message" style="text;html=1;align=left;verticalAlign=middle;resizable=0;points=[];autosize=1;strokeColor=none;fillColor=none;" vertex="1" parent="DXyumOJfPZMr4FoaWyzm-22">
          <mxGeometry x="10" y="110" width="70" height="20" as="geometry" />
        </mxCell>
        <mxCell id="DXyumOJfPZMr4FoaWyzm-226" style="edgeStyle=orthogonalEdgeStyle;rounded=0;orthogonalLoop=1;jettySize=auto;html=1;exitX=0;exitY=0.5;exitDx=0;exitDy=0;entryX=1;entryY=0.5;entryDx=0;entryDy=0;endArrow=none;endFill=0;" edge="1" parent="1" source="DXyumOJfPZMr4FoaWyzm-28" target="DXyumOJfPZMr4FoaWyzm-225">
          <mxGeometry relative="1" as="geometry" />
        </mxCell>
        <mxCell id="DXyumOJfPZMr4FoaWyzm-229" value="0,1" style="edgeLabel;html=1;align=center;verticalAlign=middle;resizable=0;points=[];" vertex="1" connectable="0" parent="DXyumOJfPZMr4FoaWyzm-226">
          <mxGeometry x="-0.5505" relative="1" as="geometry">
            <mxPoint as="offset" />
          </mxGeometry>
        </mxCell>
        <mxCell id="DXyumOJfPZMr4FoaWyzm-28" value="logs serveurs" style="swimlane;" vertex="1" parent="1">
          <mxGeometry x="360" y="-100" width="200" height="200" as="geometry" />
        </mxCell>
        <mxCell id="DXyumOJfPZMr4FoaWyzm-29" value="timestamp" style="text;html=1;align=left;verticalAlign=middle;resizable=0;points=[];autosize=1;strokeColor=none;fillColor=none;" vertex="1" parent="DXyumOJfPZMr4FoaWyzm-28">
          <mxGeometry x="10" y="30" width="70" height="20" as="geometry" />
        </mxCell>
        <mxCell id="DXyumOJfPZMr4FoaWyzm-31" value="channel_id" style="text;html=1;align=left;verticalAlign=middle;resizable=0;points=[];autosize=1;strokeColor=none;fillColor=none;" vertex="1" parent="DXyumOJfPZMr4FoaWyzm-28">
          <mxGeometry x="10" y="70" width="80" height="20" as="geometry" />
        </mxCell>
        <mxCell id="DXyumOJfPZMr4FoaWyzm-32" value="message_id" style="text;html=1;align=left;verticalAlign=middle;resizable=0;points=[];autosize=1;strokeColor=none;fillColor=none;" vertex="1" parent="DXyumOJfPZMr4FoaWyzm-28">
          <mxGeometry x="10" y="90" width="90" height="20" as="geometry" />
        </mxCell>
        <mxCell id="DXyumOJfPZMr4FoaWyzm-34" value="action_type" style="text;html=1;align=left;verticalAlign=middle;resizable=0;points=[];autosize=1;strokeColor=none;fillColor=none;" vertex="1" parent="DXyumOJfPZMr4FoaWyzm-28">
          <mxGeometry x="10" y="110" width="80" height="20" as="geometry" />
        </mxCell>
        <mxCell id="DXyumOJfPZMr4FoaWyzm-35" value="message" style="text;html=1;align=left;verticalAlign=middle;resizable=0;points=[];autosize=1;strokeColor=none;fillColor=none;" vertex="1" parent="DXyumOJfPZMr4FoaWyzm-28">
          <mxGeometry x="10" y="130" width="70" height="20" as="geometry" />
        </mxCell>
        <mxCell id="DXyumOJfPZMr4FoaWyzm-36" value="result" style="text;html=1;align=left;verticalAlign=middle;resizable=0;points=[];autosize=1;strokeColor=none;fillColor=none;" vertex="1" parent="DXyumOJfPZMr4FoaWyzm-28">
          <mxGeometry x="10" y="150" width="50" height="20" as="geometry" />
        </mxCell>
        <mxCell id="DXyumOJfPZMr4FoaWyzm-43" value="infos futurs sondages" style="swimlane;" vertex="1" parent="1">
          <mxGeometry x="770" y="20" width="200" height="200" as="geometry" />
        </mxCell>
        <mxCell id="DXyumOJfPZMr4FoaWyzm-44" value="#guild_id" style="text;html=1;align=left;verticalAlign=middle;resizable=0;points=[];autosize=1;strokeColor=none;fillColor=none;" vertex="1" parent="DXyumOJfPZMr4FoaWyzm-43">
          <mxGeometry x="15" y="50" width="70" height="20" as="geometry" />
        </mxCell>
        <mxCell id="DXyumOJfPZMr4FoaWyzm-45" value="date" style="text;html=1;align=left;verticalAlign=middle;resizable=0;points=[];autosize=1;strokeColor=none;fillColor=none;" vertex="1" parent="DXyumOJfPZMr4FoaWyzm-43">
          <mxGeometry x="15" y="90" width="40" height="20" as="geometry" />
        </mxCell>
        <mxCell id="DXyumOJfPZMr4FoaWyzm-46" value="&lt;div align=&quot;left&quot;&gt;id&lt;/div&gt;" style="text;html=1;align=left;verticalAlign=middle;resizable=0;points=[];autosize=1;strokeColor=none;fillColor=none;" vertex="1" parent="DXyumOJfPZMr4FoaWyzm-43">
          <mxGeometry x="15" y="30" width="30" height="20" as="geometry" />
        </mxCell>
        <mxCell id="DXyumOJfPZMr4FoaWyzm-47" value="comment" style="text;html=1;align=left;verticalAlign=middle;resizable=0;points=[];autosize=1;strokeColor=none;fillColor=none;" vertex="1" parent="DXyumOJfPZMr4FoaWyzm-43">
          <mxGeometry x="15" y="110" width="70" height="20" as="geometry" />
        </mxCell>
        <mxCell id="DXyumOJfPZMr4FoaWyzm-48" value="deleted" style="text;html=1;align=left;verticalAlign=middle;resizable=0;points=[];autosize=1;strokeColor=none;fillColor=none;" vertex="1" parent="DXyumOJfPZMr4FoaWyzm-43">
          <mxGeometry x="15" y="130" width="60" height="20" as="geometry" />
        </mxCell>
        <mxCell id="DXyumOJfPZMr4FoaWyzm-108" value="#routine_id" style="text;html=1;align=left;verticalAlign=middle;resizable=0;points=[];autosize=1;strokeColor=none;fillColor=none;" vertex="1" parent="DXyumOJfPZMr4FoaWyzm-43">
          <mxGeometry x="15" y="70" width="80" height="20" as="geometry" />
        </mxCell>
        <mxCell id="DXyumOJfPZMr4FoaWyzm-60" value="taches" style="swimlane;" vertex="1" parent="1">
          <mxGeometry x="790" y="640" width="200" height="200" as="geometry" />
        </mxCell>
        <mxCell id="DXyumOJfPZMr4FoaWyzm-62" value="exec_time" style="text;html=1;align=left;verticalAlign=middle;resizable=0;points=[];autosize=1;strokeColor=none;fillColor=none;" vertex="1" parent="DXyumOJfPZMr4FoaWyzm-60">
          <mxGeometry x="15" y="90" width="70" height="20" as="geometry" />
        </mxCell>
        <mxCell id="DXyumOJfPZMr4FoaWyzm-63" value="&lt;div align=&quot;left&quot;&gt;id&lt;/div&gt;" style="text;html=1;align=left;verticalAlign=middle;resizable=0;points=[];autosize=1;strokeColor=none;fillColor=none;" vertex="1" parent="DXyumOJfPZMr4FoaWyzm-60">
          <mxGeometry x="15" y="30" width="30" height="20" as="geometry" />
        </mxCell>
        <mxCell id="DXyumOJfPZMr4FoaWyzm-64" value="executed" style="text;html=1;align=left;verticalAlign=middle;resizable=0;points=[];autosize=1;strokeColor=none;fillColor=none;" vertex="1" parent="DXyumOJfPZMr4FoaWyzm-60">
          <mxGeometry x="15" y="110" width="60" height="20" as="geometry" />
        </mxCell>
        <mxCell id="DXyumOJfPZMr4FoaWyzm-65" value="error" style="text;html=1;align=left;verticalAlign=middle;resizable=0;points=[];autosize=1;strokeColor=none;fillColor=none;" vertex="1" parent="DXyumOJfPZMr4FoaWyzm-60">
          <mxGeometry x="15" y="150" width="40" height="20" as="geometry" />
        </mxCell>
        <mxCell id="DXyumOJfPZMr4FoaWyzm-66" value="active" style="text;html=1;align=left;verticalAlign=middle;resizable=0;points=[];autosize=1;strokeColor=none;fillColor=none;" vertex="1" parent="DXyumOJfPZMr4FoaWyzm-60">
          <mxGeometry x="15" y="70" width="50" height="20" as="geometry" />
        </mxCell>
        <mxCell id="DXyumOJfPZMr4FoaWyzm-71" value="executed_timestamp" style="text;html=1;align=left;verticalAlign=middle;resizable=0;points=[];autosize=1;strokeColor=none;fillColor=none;" vertex="1" parent="DXyumOJfPZMr4FoaWyzm-60">
          <mxGeometry x="15" y="130" width="130" height="20" as="geometry" />
        </mxCell>
        <mxCell id="DXyumOJfPZMr4FoaWyzm-69" value="scheduler" style="swimlane;" vertex="1" parent="1">
          <mxGeometry x="70" y="880" width="200" height="200" as="geometry" />
        </mxCell>
        <mxCell id="DXyumOJfPZMr4FoaWyzm-72" value="&lt;div align=&quot;left&quot;&gt;id&lt;/div&gt;" style="text;html=1;align=left;verticalAlign=middle;resizable=0;points=[];autosize=1;strokeColor=none;fillColor=none;" vertex="1" parent="DXyumOJfPZMr4FoaWyzm-69">
          <mxGeometry x="15" y="30" width="30" height="20" as="geometry" />
        </mxCell>
        <mxCell id="DXyumOJfPZMr4FoaWyzm-73" value="status" style="text;html=1;align=left;verticalAlign=middle;resizable=0;points=[];autosize=1;strokeColor=none;fillColor=none;" vertex="1" parent="DXyumOJfPZMr4FoaWyzm-69">
          <mxGeometry x="15" y="50" width="50" height="20" as="geometry" />
        </mxCell>
        <mxCell id="DXyumOJfPZMr4FoaWyzm-74" value="error" style="text;html=1;align=left;verticalAlign=middle;resizable=0;points=[];autosize=1;strokeColor=none;fillColor=none;" vertex="1" parent="DXyumOJfPZMr4FoaWyzm-69">
          <mxGeometry x="15" y="90" width="40" height="20" as="geometry" />
        </mxCell>
        <mxCell id="DXyumOJfPZMr4FoaWyzm-76" value="executed_time" style="text;html=1;align=left;verticalAlign=middle;resizable=0;points=[];autosize=1;strokeColor=none;fillColor=none;" vertex="1" parent="DXyumOJfPZMr4FoaWyzm-69">
          <mxGeometry x="15" y="70" width="100" height="20" as="geometry" />
        </mxCell>
        <mxCell id="DXyumOJfPZMr4FoaWyzm-77" value="user_blacklist" style="swimlane;" vertex="1" parent="1">
          <mxGeometry x="-130" y="-50" width="200" height="110" as="geometry" />
        </mxCell>
        <mxCell id="DXyumOJfPZMr4FoaWyzm-107" value="id" style="text;html=1;align=left;verticalAlign=middle;resizable=0;points=[];autosize=1;strokeColor=none;fillColor=none;" vertex="1" parent="DXyumOJfPZMr4FoaWyzm-77">
          <mxGeometry x="15" y="40" width="30" height="20" as="geometry" />
        </mxCell>
        <mxCell id="DXyumOJfPZMr4FoaWyzm-103" style="edgeStyle=orthogonalEdgeStyle;rounded=0;orthogonalLoop=1;jettySize=auto;html=1;exitX=1;exitY=0.5;exitDx=0;exitDy=0;entryX=0;entryY=0.5;entryDx=0;entryDy=0;endArrow=none;endFill=0;" edge="1" parent="1" source="DXyumOJfPZMr4FoaWyzm-84" target="DXyumOJfPZMr4FoaWyzm-102">
          <mxGeometry relative="1" as="geometry">
            <Array as="points">
              <mxPoint x="120" y="360" />
              <mxPoint x="120" y="360" />
            </Array>
          </mxGeometry>
        </mxCell>
        <mxCell id="DXyumOJfPZMr4FoaWyzm-105" value="0,n" style="edgeLabel;html=1;align=center;verticalAlign=middle;resizable=0;points=[];" vertex="1" connectable="0" parent="DXyumOJfPZMr4FoaWyzm-103">
          <mxGeometry x="-0.4333" y="-1" relative="1" as="geometry">
            <mxPoint x="9" y="-11" as="offset" />
          </mxGeometry>
        </mxCell>
        <mxCell id="DXyumOJfPZMr4FoaWyzm-111" style="edgeStyle=orthogonalEdgeStyle;rounded=0;orthogonalLoop=1;jettySize=auto;html=1;exitX=0.25;exitY=0;exitDx=0;exitDy=0;endArrow=none;endFill=0;entryX=0.5;entryY=1;entryDx=0;entryDy=0;" edge="1" parent="1" source="DXyumOJfPZMr4FoaWyzm-84" target="DXyumOJfPZMr4FoaWyzm-119">
          <mxGeometry relative="1" as="geometry">
            <mxPoint x="-79.5" y="190" as="targetPoint" />
          </mxGeometry>
        </mxCell>
        <mxCell id="DXyumOJfPZMr4FoaWyzm-124" value="0,1" style="edgeLabel;html=1;align=center;verticalAlign=middle;resizable=0;points=[];" vertex="1" connectable="0" parent="DXyumOJfPZMr4FoaWyzm-111">
          <mxGeometry x="0.3727" y="-3" relative="1" as="geometry">
            <mxPoint x="1" as="offset" />
          </mxGeometry>
        </mxCell>
        <mxCell id="DXyumOJfPZMr4FoaWyzm-112" style="edgeStyle=orthogonalEdgeStyle;rounded=0;orthogonalLoop=1;jettySize=auto;html=1;exitX=0.75;exitY=0;exitDx=0;exitDy=0;endArrow=none;endFill=0;entryX=0.5;entryY=1;entryDx=0;entryDy=0;" edge="1" parent="1" source="DXyumOJfPZMr4FoaWyzm-84" target="DXyumOJfPZMr4FoaWyzm-121">
          <mxGeometry relative="1" as="geometry">
            <mxPoint x="20.5" y="190" as="targetPoint" />
            <Array as="points">
              <mxPoint x="15" y="260" />
            </Array>
          </mxGeometry>
        </mxCell>
        <mxCell id="DXyumOJfPZMr4FoaWyzm-125" value="0,n" style="edgeLabel;html=1;align=center;verticalAlign=middle;resizable=0;points=[];" vertex="1" connectable="0" parent="DXyumOJfPZMr4FoaWyzm-112">
          <mxGeometry x="-0.562" relative="1" as="geometry">
            <mxPoint y="-22" as="offset" />
          </mxGeometry>
        </mxCell>
        <mxCell id="DXyumOJfPZMr4FoaWyzm-227" style="edgeStyle=orthogonalEdgeStyle;rounded=0;orthogonalLoop=1;jettySize=auto;html=1;exitX=1;exitY=0.25;exitDx=0;exitDy=0;entryX=0;entryY=0.5;entryDx=0;entryDy=0;endArrow=none;endFill=0;" edge="1" parent="1" source="DXyumOJfPZMr4FoaWyzm-84" target="DXyumOJfPZMr4FoaWyzm-225">
          <mxGeometry relative="1" as="geometry" />
        </mxCell>
        <mxCell id="DXyumOJfPZMr4FoaWyzm-228" value="0,n" style="edgeLabel;html=1;align=center;verticalAlign=middle;resizable=0;points=[];" vertex="1" connectable="0" parent="DXyumOJfPZMr4FoaWyzm-227">
          <mxGeometry x="-0.2711" y="3" relative="1" as="geometry">
            <mxPoint as="offset" />
          </mxGeometry>
        </mxCell>
        <mxCell id="DXyumOJfPZMr4FoaWyzm-84" value="users" style="swimlane;" vertex="1" parent="1">
          <mxGeometry x="-130" y="260" width="200" height="200" as="geometry" />
        </mxCell>
        <mxCell id="DXyumOJfPZMr4FoaWyzm-85" value="name" style="text;html=1;align=left;verticalAlign=middle;resizable=0;points=[];autosize=1;strokeColor=none;fillColor=none;" vertex="1" parent="DXyumOJfPZMr4FoaWyzm-84">
          <mxGeometry x="15" y="50" width="50" height="20" as="geometry" />
        </mxCell>
        <mxCell id="DXyumOJfPZMr4FoaWyzm-87" value="user_id" style="text;html=1;align=left;verticalAlign=middle;resizable=0;points=[];autosize=1;strokeColor=none;fillColor=none;" vertex="1" parent="DXyumOJfPZMr4FoaWyzm-84">
          <mxGeometry x="15" y="30" width="60" height="20" as="geometry" />
        </mxCell>
        <mxCell id="DXyumOJfPZMr4FoaWyzm-90" value="discriminator" style="text;html=1;align=left;verticalAlign=middle;resizable=0;points=[];autosize=1;strokeColor=none;fillColor=none;" vertex="1" parent="DXyumOJfPZMr4FoaWyzm-84">
          <mxGeometry x="15" y="70" width="90" height="20" as="geometry" />
        </mxCell>
        <mxCell id="DXyumOJfPZMr4FoaWyzm-144" style="edgeStyle=orthogonalEdgeStyle;rounded=0;orthogonalLoop=1;jettySize=auto;html=1;exitX=0.5;exitY=0;exitDx=0;exitDy=0;endArrow=none;endFill=0;" edge="1" parent="1" source="DXyumOJfPZMr4FoaWyzm-91">
          <mxGeometry relative="1" as="geometry">
            <mxPoint x="469.99999999999955" y="460" as="targetPoint" />
          </mxGeometry>
        </mxCell>
        <mxCell id="DXyumOJfPZMr4FoaWyzm-145" value="0,n" style="edgeLabel;html=1;align=center;verticalAlign=middle;resizable=0;points=[];" vertex="1" connectable="0" parent="DXyumOJfPZMr4FoaWyzm-144">
          <mxGeometry x="-0.534" y="-2" relative="1" as="geometry">
            <mxPoint x="1" as="offset" />
          </mxGeometry>
        </mxCell>
        <mxCell id="DXyumOJfPZMr4FoaWyzm-91" value="possède" style="swimlane;rounded=1;" vertex="1" parent="1">
          <mxGeometry x="395" y="510" width="150" height="90" as="geometry" />
        </mxCell>
        <mxCell id="DXyumOJfPZMr4FoaWyzm-104" style="edgeStyle=orthogonalEdgeStyle;rounded=0;orthogonalLoop=1;jettySize=auto;html=1;exitX=1;exitY=0.5;exitDx=0;exitDy=0;entryX=0;entryY=0.5;entryDx=0;entryDy=0;endArrow=none;endFill=0;" edge="1" parent="1" source="DXyumOJfPZMr4FoaWyzm-102" target="DXyumOJfPZMr4FoaWyzm-1">
          <mxGeometry relative="1" as="geometry">
            <Array as="points">
              <mxPoint x="300" y="360" />
              <mxPoint x="300" y="360" />
            </Array>
          </mxGeometry>
        </mxCell>
        <mxCell id="DXyumOJfPZMr4FoaWyzm-106" value="0,n" style="edgeLabel;html=1;align=center;verticalAlign=middle;resizable=0;points=[];" vertex="1" connectable="0" parent="DXyumOJfPZMr4FoaWyzm-104">
          <mxGeometry x="0.1429" y="-1" relative="1" as="geometry">
            <mxPoint x="-10" y="-11" as="offset" />
          </mxGeometry>
        </mxCell>
        <mxCell id="DXyumOJfPZMr4FoaWyzm-102" value="connecté" style="swimlane;rounded=1;" vertex="1" parent="1">
          <mxGeometry x="140" y="315" width="150" height="90" as="geometry" />
        </mxCell>
        <mxCell id="DXyumOJfPZMr4FoaWyzm-120" style="edgeStyle=orthogonalEdgeStyle;rounded=0;orthogonalLoop=1;jettySize=auto;html=1;exitX=0.5;exitY=0;exitDx=0;exitDy=0;entryX=0.25;entryY=1;entryDx=0;entryDy=0;endArrow=none;endFill=0;" edge="1" parent="1" source="DXyumOJfPZMr4FoaWyzm-119" target="DXyumOJfPZMr4FoaWyzm-77">
          <mxGeometry relative="1" as="geometry" />
        </mxCell>
        <mxCell id="DXyumOJfPZMr4FoaWyzm-123" value="1,1" style="edgeLabel;html=1;align=center;verticalAlign=middle;resizable=0;points=[];" vertex="1" connectable="0" parent="DXyumOJfPZMr4FoaWyzm-120">
          <mxGeometry x="-0.2769" y="4" relative="1" as="geometry">
            <mxPoint x="1" as="offset" />
          </mxGeometry>
        </mxCell>
        <mxCell id="DXyumOJfPZMr4FoaWyzm-119" value="est blacklisté" style="swimlane;rounded=1;" vertex="1" parent="1">
          <mxGeometry x="-280" y="130" width="150" height="90" as="geometry" />
        </mxCell>
        <mxCell id="DXyumOJfPZMr4FoaWyzm-122" style="edgeStyle=orthogonalEdgeStyle;rounded=0;orthogonalLoop=1;jettySize=auto;html=1;exitX=0.5;exitY=0;exitDx=0;exitDy=0;entryX=0.75;entryY=1;entryDx=0;entryDy=0;endArrow=none;endFill=0;" edge="1" parent="1" source="DXyumOJfPZMr4FoaWyzm-121" target="DXyumOJfPZMr4FoaWyzm-77">
          <mxGeometry relative="1" as="geometry">
            <Array as="points">
              <mxPoint x="20" y="120" />
            </Array>
          </mxGeometry>
        </mxCell>
        <mxCell id="DXyumOJfPZMr4FoaWyzm-126" value="1,1" style="edgeLabel;html=1;align=center;verticalAlign=middle;resizable=0;points=[];" vertex="1" connectable="0" parent="DXyumOJfPZMr4FoaWyzm-122">
          <mxGeometry x="0.2075" y="1" relative="1" as="geometry">
            <mxPoint x="1" as="offset" />
          </mxGeometry>
        </mxCell>
        <mxCell id="DXyumOJfPZMr4FoaWyzm-121" value="blackliste" style="swimlane;rounded=1;" vertex="1" parent="1">
          <mxGeometry x="-60" y="120" width="150" height="90" as="geometry" />
        </mxCell>
        <mxCell id="DXyumOJfPZMr4FoaWyzm-79" value="timestamp" style="text;html=1;align=left;verticalAlign=middle;resizable=0;points=[];autosize=1;strokeColor=none;fillColor=none;" vertex="1" parent="DXyumOJfPZMr4FoaWyzm-121">
          <mxGeometry x="5" y="35" width="70" height="20" as="geometry" />
        </mxCell>
        <mxCell id="DXyumOJfPZMr4FoaWyzm-82" value="reason" style="text;html=1;align=left;verticalAlign=middle;resizable=0;points=[];autosize=1;strokeColor=none;fillColor=none;" vertex="1" parent="DXyumOJfPZMr4FoaWyzm-121">
          <mxGeometry x="5" y="55" width="50" height="20" as="geometry" />
        </mxCell>
        <mxCell id="DXyumOJfPZMr4FoaWyzm-127" value="user_blacklist" style="swimlane;" vertex="1" parent="1">
          <mxGeometry x="-130" y="-400" width="200" height="200" as="geometry" />
        </mxCell>
        <mxCell id="DXyumOJfPZMr4FoaWyzm-128" value="timestamp" style="text;html=1;align=left;verticalAlign=middle;resizable=0;points=[];autosize=1;strokeColor=none;fillColor=none;" vertex="1" parent="DXyumOJfPZMr4FoaWyzm-127">
          <mxGeometry x="15" y="80" width="70" height="20" as="geometry" />
        </mxCell>
        <mxCell id="DXyumOJfPZMr4FoaWyzm-129" value="#user_id" style="text;html=1;align=left;verticalAlign=middle;resizable=0;points=[];autosize=1;strokeColor=none;fillColor=none;" vertex="1" parent="DXyumOJfPZMr4FoaWyzm-127">
          <mxGeometry x="15" y="60" width="60" height="20" as="geometry" />
        </mxCell>
        <mxCell id="DXyumOJfPZMr4FoaWyzm-130" value="#blacklister_id" style="text;html=1;align=left;verticalAlign=middle;resizable=0;points=[];autosize=1;strokeColor=none;fillColor=none;" vertex="1" parent="DXyumOJfPZMr4FoaWyzm-127">
          <mxGeometry x="15" y="100" width="100" height="20" as="geometry" />
        </mxCell>
        <mxCell id="DXyumOJfPZMr4FoaWyzm-131" value="reason" style="text;html=1;align=left;verticalAlign=middle;resizable=0;points=[];autosize=1;strokeColor=none;fillColor=none;" vertex="1" parent="DXyumOJfPZMr4FoaWyzm-127">
          <mxGeometry x="15" y="120" width="50" height="20" as="geometry" />
        </mxCell>
        <mxCell id="DXyumOJfPZMr4FoaWyzm-132" value="id" style="text;html=1;align=left;verticalAlign=middle;resizable=0;points=[];autosize=1;strokeColor=none;fillColor=none;" vertex="1" parent="DXyumOJfPZMr4FoaWyzm-127">
          <mxGeometry x="15" y="40" width="30" height="20" as="geometry" />
        </mxCell>
        <mxCell id="DXyumOJfPZMr4FoaWyzm-139" value="users" style="swimlane;" vertex="1" parent="1">
          <mxGeometry x="70" y="-400" width="200" height="200" as="geometry" />
        </mxCell>
        <mxCell id="DXyumOJfPZMr4FoaWyzm-140" value="name" style="text;html=1;align=left;verticalAlign=middle;resizable=0;points=[];autosize=1;strokeColor=none;fillColor=none;" vertex="1" parent="DXyumOJfPZMr4FoaWyzm-139">
          <mxGeometry x="15" y="50" width="50" height="20" as="geometry" />
        </mxCell>
        <mxCell id="DXyumOJfPZMr4FoaWyzm-141" value="user_id" style="text;html=1;align=left;verticalAlign=middle;resizable=0;points=[];autosize=1;strokeColor=none;fillColor=none;" vertex="1" parent="DXyumOJfPZMr4FoaWyzm-139">
          <mxGeometry x="15" y="30" width="60" height="20" as="geometry" />
        </mxCell>
        <mxCell id="DXyumOJfPZMr4FoaWyzm-142" value="discriminator" style="text;html=1;align=left;verticalAlign=middle;resizable=0;points=[];autosize=1;strokeColor=none;fillColor=none;" vertex="1" parent="DXyumOJfPZMr4FoaWyzm-139">
          <mxGeometry x="15" y="70" width="90" height="20" as="geometry" />
        </mxCell>
        <mxCell id="DXyumOJfPZMr4FoaWyzm-147" value="serveur" style="swimlane;" vertex="1" parent="1">
          <mxGeometry x="270" y="-400" width="200" height="200" as="geometry" />
        </mxCell>
        <mxCell id="DXyumOJfPZMr4FoaWyzm-148" value="??guild_discord_id" style="text;html=1;align=left;verticalAlign=middle;resizable=0;points=[];autosize=1;strokeColor=none;fillColor=none;" vertex="1" parent="DXyumOJfPZMr4FoaWyzm-147">
          <mxGeometry x="15" y="50" width="120" height="20" as="geometry" />
        </mxCell>
        <mxCell id="DXyumOJfPZMr4FoaWyzm-149" value="name" style="text;html=1;align=left;verticalAlign=middle;resizable=0;points=[];autosize=1;strokeColor=none;fillColor=none;" vertex="1" parent="DXyumOJfPZMr4FoaWyzm-147">
          <mxGeometry x="15" y="70" width="50" height="20" as="geometry" />
        </mxCell>
        <mxCell id="DXyumOJfPZMr4FoaWyzm-150" value="&lt;div align=&quot;left&quot;&gt;id&lt;/div&gt;" style="text;html=1;align=left;verticalAlign=middle;resizable=0;points=[];autosize=1;strokeColor=none;fillColor=none;" vertex="1" parent="DXyumOJfPZMr4FoaWyzm-147">
          <mxGeometry x="15" y="30" width="30" height="20" as="geometry" />
        </mxCell>
        <mxCell id="DXyumOJfPZMr4FoaWyzm-151" value="club_name" style="text;html=1;align=left;verticalAlign=middle;resizable=0;points=[];autosize=1;strokeColor=none;fillColor=none;" vertex="1" parent="DXyumOJfPZMr4FoaWyzm-147">
          <mxGeometry x="15" y="90" width="80" height="20" as="geometry" />
        </mxCell>
        <mxCell id="DXyumOJfPZMr4FoaWyzm-152" value="default_posting_weekday" style="text;html=1;align=left;verticalAlign=middle;resizable=0;points=[];autosize=1;strokeColor=none;fillColor=none;" vertex="1" parent="DXyumOJfPZMr4FoaWyzm-147">
          <mxGeometry x="15" y="110" width="160" height="20" as="geometry" />
        </mxCell>
        <mxCell id="DXyumOJfPZMr4FoaWyzm-153" value="default_posting_time" style="text;html=1;align=left;verticalAlign=middle;resizable=0;points=[];autosize=1;strokeColor=none;fillColor=none;" vertex="1" parent="DXyumOJfPZMr4FoaWyzm-147">
          <mxGeometry x="15" y="130" width="130" height="20" as="geometry" />
        </mxCell>
        <mxCell id="DXyumOJfPZMr4FoaWyzm-154" value="language" style="text;html=1;align=left;verticalAlign=middle;resizable=0;points=[];autosize=1;strokeColor=none;fillColor=none;" vertex="1" parent="DXyumOJfPZMr4FoaWyzm-147">
          <mxGeometry x="15" y="150" width="70" height="20" as="geometry" />
        </mxCell>
        <mxCell id="DXyumOJfPZMr4FoaWyzm-155" value="gsheet_auth" style="text;html=1;align=left;verticalAlign=middle;resizable=0;points=[];autosize=1;strokeColor=none;fillColor=none;" vertex="1" parent="DXyumOJfPZMr4FoaWyzm-147">
          <mxGeometry x="15" y="170" width="80" height="20" as="geometry" />
        </mxCell>
        <mxCell id="DXyumOJfPZMr4FoaWyzm-156" value="routines de sondages" style="swimlane;" vertex="1" parent="1">
          <mxGeometry x="470" y="-400" width="200" height="200" as="geometry" />
        </mxCell>
        <mxCell id="DXyumOJfPZMr4FoaWyzm-157" value="channel_discord_id" style="text;html=1;align=left;verticalAlign=middle;resizable=0;points=[];autosize=1;strokeColor=none;fillColor=none;" vertex="1" parent="DXyumOJfPZMr4FoaWyzm-156">
          <mxGeometry x="15" y="50" width="120" height="20" as="geometry" />
        </mxCell>
        <mxCell id="DXyumOJfPZMr4FoaWyzm-158" value="posting_weekday" style="text;html=1;align=left;verticalAlign=middle;resizable=0;points=[];autosize=1;strokeColor=none;fillColor=none;" vertex="1" parent="DXyumOJfPZMr4FoaWyzm-156">
          <mxGeometry x="15" y="70" width="110" height="20" as="geometry" />
        </mxCell>
        <mxCell id="DXyumOJfPZMr4FoaWyzm-159" value="&lt;div align=&quot;left&quot;&gt;id&lt;/div&gt;" style="text;html=1;align=left;verticalAlign=middle;resizable=0;points=[];autosize=1;strokeColor=none;fillColor=none;" vertex="1" parent="DXyumOJfPZMr4FoaWyzm-156">
          <mxGeometry x="15" y="30" width="30" height="20" as="geometry" />
        </mxCell>
        <mxCell id="DXyumOJfPZMr4FoaWyzm-160" value="posting_time" style="text;html=1;align=left;verticalAlign=middle;resizable=0;points=[];autosize=1;strokeColor=none;fillColor=none;" vertex="1" parent="DXyumOJfPZMr4FoaWyzm-156">
          <mxGeometry x="15" y="90" width="90" height="20" as="geometry" />
        </mxCell>
        <mxCell id="DXyumOJfPZMr4FoaWyzm-161" value="title_format (eg. Lundi 3, 19h)" style="text;html=1;align=left;verticalAlign=middle;resizable=0;points=[];autosize=1;strokeColor=none;fillColor=none;" vertex="1" parent="DXyumOJfPZMr4FoaWyzm-156">
          <mxGeometry x="15" y="110" width="180" height="20" as="geometry" />
        </mxCell>
        <mxCell id="DXyumOJfPZMr4FoaWyzm-162" value="message" style="text;html=1;align=left;verticalAlign=middle;resizable=0;points=[];autosize=1;strokeColor=none;fillColor=none;" vertex="1" parent="DXyumOJfPZMr4FoaWyzm-156">
          <mxGeometry x="15" y="130" width="70" height="20" as="geometry" />
        </mxCell>
        <mxCell id="DXyumOJfPZMr4FoaWyzm-163" value="reactions" style="text;html=1;align=left;verticalAlign=middle;resizable=0;points=[];autosize=1;strokeColor=none;fillColor=none;" vertex="1" parent="DXyumOJfPZMr4FoaWyzm-156">
          <mxGeometry x="15" y="150" width="70" height="20" as="geometry" />
        </mxCell>
        <mxCell id="DXyumOJfPZMr4FoaWyzm-166" style="edgeStyle=orthogonalEdgeStyle;rounded=0;orthogonalLoop=1;jettySize=auto;html=1;exitX=1;exitY=0.5;exitDx=0;exitDy=0;entryX=0;entryY=0.5;entryDx=0;entryDy=0;endArrow=none;endFill=0;" edge="1" parent="1" source="DXyumOJfPZMr4FoaWyzm-164" target="DXyumOJfPZMr4FoaWyzm-14">
          <mxGeometry relative="1" as="geometry" />
        </mxCell>
        <mxCell id="DXyumOJfPZMr4FoaWyzm-168" value="1,1" style="edgeLabel;html=1;align=center;verticalAlign=middle;resizable=0;points=[];" vertex="1" connectable="0" parent="DXyumOJfPZMr4FoaWyzm-166">
          <mxGeometry x="0.2894" y="1" relative="1" as="geometry">
            <mxPoint as="offset" />
          </mxGeometry>
        </mxCell>
        <mxCell id="DXyumOJfPZMr4FoaWyzm-164" value="organise" style="swimlane;rounded=1;" vertex="1" parent="1">
          <mxGeometry x="600" y="315" width="150" height="90" as="geometry" />
        </mxCell>
        <mxCell id="DXyumOJfPZMr4FoaWyzm-169" value="language" style="swimlane;" vertex="1" parent="1">
          <mxGeometry x="-40" y="585" width="200" height="200" as="geometry" />
        </mxCell>
        <mxCell id="DXyumOJfPZMr4FoaWyzm-170" value="name" style="text;html=1;align=left;verticalAlign=middle;resizable=0;points=[];autosize=1;strokeColor=none;fillColor=none;" vertex="1" parent="DXyumOJfPZMr4FoaWyzm-169">
          <mxGeometry x="15" y="50" width="50" height="20" as="geometry" />
        </mxCell>
        <mxCell id="DXyumOJfPZMr4FoaWyzm-171" value="dict" style="text;html=1;align=left;verticalAlign=middle;resizable=0;points=[];autosize=1;strokeColor=none;fillColor=none;" vertex="1" parent="DXyumOJfPZMr4FoaWyzm-169">
          <mxGeometry x="15" y="70" width="30" height="20" as="geometry" />
        </mxCell>
        <mxCell id="DXyumOJfPZMr4FoaWyzm-172" value="&lt;div align=&quot;left&quot;&gt;id&lt;/div&gt;" style="text;html=1;align=left;verticalAlign=middle;resizable=0;points=[];autosize=1;strokeColor=none;fillColor=none;" vertex="1" parent="DXyumOJfPZMr4FoaWyzm-169">
          <mxGeometry x="15" y="30" width="30" height="20" as="geometry" />
        </mxCell>
        <mxCell id="DXyumOJfPZMr4FoaWyzm-180" style="edgeStyle=orthogonalEdgeStyle;rounded=0;orthogonalLoop=1;jettySize=auto;html=1;exitX=0.5;exitY=1;exitDx=0;exitDy=0;entryX=1;entryY=0.5;entryDx=0;entryDy=0;endArrow=none;endFill=0;" edge="1" parent="1" source="DXyumOJfPZMr4FoaWyzm-178" target="DXyumOJfPZMr4FoaWyzm-169">
          <mxGeometry relative="1" as="geometry" />
        </mxCell>
        <mxCell id="DXyumOJfPZMr4FoaWyzm-182" value="0,n" style="edgeLabel;html=1;align=center;verticalAlign=middle;resizable=0;points=[];" vertex="1" connectable="0" parent="DXyumOJfPZMr4FoaWyzm-180">
          <mxGeometry x="-0.6217" y="-1" relative="1" as="geometry">
            <mxPoint as="offset" />
          </mxGeometry>
        </mxCell>
        <mxCell id="DXyumOJfPZMr4FoaWyzm-178" value="utilise" style="swimlane;rounded=1;" vertex="1" parent="1">
          <mxGeometry x="190" y="470" width="150" height="90" as="geometry" />
        </mxCell>
        <mxCell id="DXyumOJfPZMr4FoaWyzm-184" style="edgeStyle=orthogonalEdgeStyle;rounded=0;orthogonalLoop=1;jettySize=auto;html=1;exitX=0;exitY=0.5;exitDx=0;exitDy=0;entryX=1;entryY=0.5;entryDx=0;entryDy=0;endArrow=none;endFill=0;" edge="1" parent="1" source="DXyumOJfPZMr4FoaWyzm-183" target="DXyumOJfPZMr4FoaWyzm-2">
          <mxGeometry relative="1" as="geometry" />
        </mxCell>
        <mxCell id="DXyumOJfPZMr4FoaWyzm-186" value="0,n" style="edgeLabel;html=1;align=center;verticalAlign=middle;resizable=0;points=[];" vertex="1" connectable="0" parent="DXyumOJfPZMr4FoaWyzm-184">
          <mxGeometry x="0.038" y="-1" relative="1" as="geometry">
            <mxPoint as="offset" />
          </mxGeometry>
        </mxCell>
        <mxCell id="DXyumOJfPZMr4FoaWyzm-185" style="edgeStyle=orthogonalEdgeStyle;rounded=0;orthogonalLoop=1;jettySize=auto;html=1;exitX=1;exitY=0.5;exitDx=0;exitDy=0;entryX=0;entryY=0.5;entryDx=0;entryDy=0;endArrow=none;endFill=0;" edge="1" parent="1" source="DXyumOJfPZMr4FoaWyzm-183" target="DXyumOJfPZMr4FoaWyzm-60">
          <mxGeometry relative="1" as="geometry" />
        </mxCell>
        <mxCell id="DXyumOJfPZMr4FoaWyzm-199" value="1,1" style="edgeLabel;html=1;align=center;verticalAlign=middle;resizable=0;points=[];" vertex="1" connectable="0" parent="DXyumOJfPZMr4FoaWyzm-185">
          <mxGeometry x="-0.4261" y="-1" relative="1" as="geometry">
            <mxPoint as="offset" />
          </mxGeometry>
        </mxCell>
        <mxCell id="DXyumOJfPZMr4FoaWyzm-183" value="génère" style="swimlane;rounded=1;startSize=23;" vertex="1" parent="1">
          <mxGeometry x="600" y="695" width="150" height="90" as="geometry" />
        </mxCell>
        <mxCell id="DXyumOJfPZMr4FoaWyzm-187" value="entrainements" style="swimlane;" vertex="1" parent="1">
          <mxGeometry x="670" y="-400" width="200" height="200" as="geometry" />
        </mxCell>
        <mxCell id="DXyumOJfPZMr4FoaWyzm-188" value="weekday" style="text;html=1;align=left;verticalAlign=middle;resizable=0;points=[];autosize=1;strokeColor=none;fillColor=none;" vertex="1" parent="DXyumOJfPZMr4FoaWyzm-187">
          <mxGeometry x="15" y="50" width="60" height="20" as="geometry" />
        </mxCell>
        <mxCell id="DXyumOJfPZMr4FoaWyzm-189" value="time" style="text;html=1;align=left;verticalAlign=middle;resizable=0;points=[];autosize=1;strokeColor=none;fillColor=none;" vertex="1" parent="DXyumOJfPZMr4FoaWyzm-187">
          <mxGeometry x="15" y="70" width="40" height="20" as="geometry" />
        </mxCell>
        <mxCell id="DXyumOJfPZMr4FoaWyzm-190" value="&lt;div align=&quot;left&quot;&gt;id&lt;/div&gt;" style="text;html=1;align=left;verticalAlign=middle;resizable=0;points=[];autosize=1;strokeColor=none;fillColor=none;" vertex="1" parent="DXyumOJfPZMr4FoaWyzm-187">
          <mxGeometry x="15" y="30" width="30" height="20" as="geometry" />
        </mxCell>
        <mxCell id="DXyumOJfPZMr4FoaWyzm-191" value="taches" style="swimlane;" vertex="1" parent="1">
          <mxGeometry x="870" y="-400" width="200" height="200" as="geometry" />
        </mxCell>
        <mxCell id="DXyumOJfPZMr4FoaWyzm-192" value="#routine_id" style="text;html=1;align=left;verticalAlign=middle;resizable=0;points=[];autosize=1;strokeColor=none;fillColor=none;" vertex="1" parent="DXyumOJfPZMr4FoaWyzm-191">
          <mxGeometry x="15" y="50" width="80" height="20" as="geometry" />
        </mxCell>
        <mxCell id="DXyumOJfPZMr4FoaWyzm-193" value="exec_time" style="text;html=1;align=left;verticalAlign=middle;resizable=0;points=[];autosize=1;strokeColor=none;fillColor=none;" vertex="1" parent="DXyumOJfPZMr4FoaWyzm-191">
          <mxGeometry x="15" y="90" width="70" height="20" as="geometry" />
        </mxCell>
        <mxCell id="DXyumOJfPZMr4FoaWyzm-194" value="&lt;div align=&quot;left&quot;&gt;id&lt;/div&gt;" style="text;html=1;align=left;verticalAlign=middle;resizable=0;points=[];autosize=1;strokeColor=none;fillColor=none;" vertex="1" parent="DXyumOJfPZMr4FoaWyzm-191">
          <mxGeometry x="15" y="30" width="30" height="20" as="geometry" />
        </mxCell>
        <mxCell id="DXyumOJfPZMr4FoaWyzm-195" value="executed" style="text;html=1;align=left;verticalAlign=middle;resizable=0;points=[];autosize=1;strokeColor=none;fillColor=none;" vertex="1" parent="DXyumOJfPZMr4FoaWyzm-191">
          <mxGeometry x="15" y="110" width="60" height="20" as="geometry" />
        </mxCell>
        <mxCell id="DXyumOJfPZMr4FoaWyzm-196" value="error" style="text;html=1;align=left;verticalAlign=middle;resizable=0;points=[];autosize=1;strokeColor=none;fillColor=none;" vertex="1" parent="DXyumOJfPZMr4FoaWyzm-191">
          <mxGeometry x="15" y="150" width="40" height="20" as="geometry" />
        </mxCell>
        <mxCell id="DXyumOJfPZMr4FoaWyzm-197" value="active" style="text;html=1;align=left;verticalAlign=middle;resizable=0;points=[];autosize=1;strokeColor=none;fillColor=none;" vertex="1" parent="DXyumOJfPZMr4FoaWyzm-191">
          <mxGeometry x="15" y="70" width="50" height="20" as="geometry" />
        </mxCell>
        <mxCell id="DXyumOJfPZMr4FoaWyzm-198" value="executed_time" style="text;html=1;align=left;verticalAlign=middle;resizable=0;points=[];autosize=1;strokeColor=none;fillColor=none;" vertex="1" parent="DXyumOJfPZMr4FoaWyzm-191">
          <mxGeometry x="15" y="130" width="100" height="20" as="geometry" />
        </mxCell>
        <mxCell id="DXyumOJfPZMr4FoaWyzm-202" style="edgeStyle=orthogonalEdgeStyle;rounded=0;orthogonalLoop=1;jettySize=auto;html=1;exitX=1;exitY=0.5;exitDx=0;exitDy=0;entryX=0.5;entryY=1;entryDx=0;entryDy=0;endArrow=none;endFill=0;" edge="1" parent="1" source="DXyumOJfPZMr4FoaWyzm-200" target="DXyumOJfPZMr4FoaWyzm-14">
          <mxGeometry relative="1" as="geometry" />
        </mxCell>
        <mxCell id="DXyumOJfPZMr4FoaWyzm-204" value="0,1" style="edgeLabel;html=1;align=center;verticalAlign=middle;resizable=0;points=[];" vertex="1" connectable="0" parent="DXyumOJfPZMr4FoaWyzm-202">
          <mxGeometry x="0.1525" y="3" relative="1" as="geometry">
            <mxPoint as="offset" />
          </mxGeometry>
        </mxCell>
        <mxCell id="DXyumOJfPZMr4FoaWyzm-200" value="liée" style="swimlane;rounded=1;startSize=23;" vertex="1" parent="1">
          <mxGeometry x="660" y="495" width="150" height="90" as="geometry" />
        </mxCell>
        <mxCell id="DXyumOJfPZMr4FoaWyzm-205" value="scheduler" style="swimlane;" vertex="1" parent="1">
          <mxGeometry x="1070" y="-400" width="200" height="200" as="geometry" />
        </mxCell>
        <mxCell id="DXyumOJfPZMr4FoaWyzm-206" value="&lt;div align=&quot;left&quot;&gt;id&lt;/div&gt;" style="text;html=1;align=left;verticalAlign=middle;resizable=0;points=[];autosize=1;strokeColor=none;fillColor=none;" vertex="1" parent="DXyumOJfPZMr4FoaWyzm-205">
          <mxGeometry x="15" y="30" width="30" height="20" as="geometry" />
        </mxCell>
        <mxCell id="DXyumOJfPZMr4FoaWyzm-207" value="status" style="text;html=1;align=left;verticalAlign=middle;resizable=0;points=[];autosize=1;strokeColor=none;fillColor=none;" vertex="1" parent="DXyumOJfPZMr4FoaWyzm-205">
          <mxGeometry x="15" y="50" width="50" height="20" as="geometry" />
        </mxCell>
        <mxCell id="DXyumOJfPZMr4FoaWyzm-208" value="error" style="text;html=1;align=left;verticalAlign=middle;resizable=0;points=[];autosize=1;strokeColor=none;fillColor=none;" vertex="1" parent="DXyumOJfPZMr4FoaWyzm-205">
          <mxGeometry x="15" y="90" width="40" height="20" as="geometry" />
        </mxCell>
        <mxCell id="DXyumOJfPZMr4FoaWyzm-209" value="executed_time" style="text;html=1;align=left;verticalAlign=middle;resizable=0;points=[];autosize=1;strokeColor=none;fillColor=none;" vertex="1" parent="DXyumOJfPZMr4FoaWyzm-205">
          <mxGeometry x="15" y="70" width="100" height="20" as="geometry" />
        </mxCell>
        <mxCell id="DXyumOJfPZMr4FoaWyzm-212" style="edgeStyle=orthogonalEdgeStyle;rounded=0;orthogonalLoop=1;jettySize=auto;html=1;exitX=0.5;exitY=0;exitDx=0;exitDy=0;endArrow=none;endFill=0;entryX=0.5;entryY=1;entryDx=0;entryDy=0;" edge="1" parent="1" source="DXyumOJfPZMr4FoaWyzm-210" target="DXyumOJfPZMr4FoaWyzm-28">
          <mxGeometry relative="1" as="geometry">
            <mxPoint x="449.99999999999955" y="80" as="targetPoint" />
          </mxGeometry>
        </mxCell>
        <mxCell id="DXyumOJfPZMr4FoaWyzm-213" value="1,1" style="edgeLabel;html=1;align=center;verticalAlign=middle;resizable=0;points=[];" vertex="1" connectable="0" parent="DXyumOJfPZMr4FoaWyzm-212">
          <mxGeometry x="0.2366" relative="1" as="geometry">
            <mxPoint x="-1" as="offset" />
          </mxGeometry>
        </mxCell>
        <mxCell id="DXyumOJfPZMr4FoaWyzm-210" value="crée" style="swimlane;rounded=1;" vertex="1" parent="1">
          <mxGeometry x="385" y="130" width="150" height="90" as="geometry" />
        </mxCell>
        <mxCell id="DXyumOJfPZMr4FoaWyzm-216" value="logs serveurs" style="swimlane;" vertex="1" parent="1">
          <mxGeometry x="400" y="-600" width="200" height="200" as="geometry" />
        </mxCell>
        <mxCell id="DXyumOJfPZMr4FoaWyzm-217" value="timestamp" style="text;html=1;align=left;verticalAlign=middle;resizable=0;points=[];autosize=1;strokeColor=none;fillColor=none;" vertex="1" parent="DXyumOJfPZMr4FoaWyzm-216">
          <mxGeometry x="10" y="30" width="70" height="20" as="geometry" />
        </mxCell>
        <mxCell id="DXyumOJfPZMr4FoaWyzm-218" value="#guild_id" style="text;html=1;align=left;verticalAlign=middle;resizable=0;points=[];autosize=1;strokeColor=none;fillColor=none;" vertex="1" parent="DXyumOJfPZMr4FoaWyzm-216">
          <mxGeometry x="10" y="50" width="70" height="20" as="geometry" />
        </mxCell>
        <mxCell id="DXyumOJfPZMr4FoaWyzm-219" value="channel_id" style="text;html=1;align=left;verticalAlign=middle;resizable=0;points=[];autosize=1;strokeColor=none;fillColor=none;" vertex="1" parent="DXyumOJfPZMr4FoaWyzm-216">
          <mxGeometry x="10" y="70" width="80" height="20" as="geometry" />
        </mxCell>
        <mxCell id="DXyumOJfPZMr4FoaWyzm-220" value="message_id" style="text;html=1;align=left;verticalAlign=middle;resizable=0;points=[];autosize=1;strokeColor=none;fillColor=none;" vertex="1" parent="DXyumOJfPZMr4FoaWyzm-216">
          <mxGeometry x="10" y="90" width="90" height="20" as="geometry" />
        </mxCell>
        <mxCell id="DXyumOJfPZMr4FoaWyzm-221" value="#user_id" style="text;html=1;align=left;verticalAlign=middle;resizable=0;points=[];autosize=1;strokeColor=none;fillColor=none;" vertex="1" parent="DXyumOJfPZMr4FoaWyzm-216">
          <mxGeometry x="10" y="110" width="60" height="20" as="geometry" />
        </mxCell>
        <mxCell id="DXyumOJfPZMr4FoaWyzm-222" value="action_type" style="text;html=1;align=left;verticalAlign=middle;resizable=0;points=[];autosize=1;strokeColor=none;fillColor=none;" vertex="1" parent="DXyumOJfPZMr4FoaWyzm-216">
          <mxGeometry x="10" y="130" width="80" height="20" as="geometry" />
        </mxCell>
        <mxCell id="DXyumOJfPZMr4FoaWyzm-223" value="message" style="text;html=1;align=left;verticalAlign=middle;resizable=0;points=[];autosize=1;strokeColor=none;fillColor=none;" vertex="1" parent="DXyumOJfPZMr4FoaWyzm-216">
          <mxGeometry x="10" y="150" width="70" height="20" as="geometry" />
        </mxCell>
        <mxCell id="DXyumOJfPZMr4FoaWyzm-224" value="result" style="text;html=1;align=left;verticalAlign=middle;resizable=0;points=[];autosize=1;strokeColor=none;fillColor=none;" vertex="1" parent="DXyumOJfPZMr4FoaWyzm-216">
          <mxGeometry x="10" y="170" width="50" height="20" as="geometry" />
        </mxCell>
        <mxCell id="DXyumOJfPZMr4FoaWyzm-225" value="est mentionné" style="swimlane;rounded=1;" vertex="1" parent="1">
          <mxGeometry x="170" y="70" width="150" height="90" as="geometry" />
        </mxCell>
      </root>
    </mxGraphModel>
  </diagram>
</mxfile>
